# Created by Metasequoia

v 0.000000 -3.000000 -10.000000
v 2.345495 -1.870468 -10.000000
v 2.924784 0.667564 -10.000000
v 1.301651 2.702908 -10.000000
v -1.301652 2.702908 -10.000000
v -2.924784 0.667562 -10.000000
v -2.345494 -1.870468 -10.000000
v 0.000000 0.000000 32.000000
v 0.000000 0.000000 -10.000000
v 10.000000 0.000000 5.000000
v 13.750000 0.000000 7.165064
v 13.750000 0.000000 2.834936
v 5.000000 -8.660250 5.000000
v 6.875000 -11.907839 7.165063
v 6.875000 -11.907839 2.834935
v -5.000000 -8.660250 5.000000
v -6.875001 -11.907839 7.165063
v -6.875001 -11.907839 2.834935
v -10.000000 0.000000 5.000000
v -13.750000 0.000000 7.165064
v -13.750000 0.000000 2.834936
v -4.999999 8.660267 5.000000
v -6.874999 11.907864 7.165064
v -6.874999 11.907864 2.834937
v 4.999999 8.660267 5.000000
v 6.874999 11.907864 7.165064
v 6.874999 11.907864 2.834937
# 27 vertices

vt 0.19315 0.66668
vt 0.20739 0.67106
vt 0.22164 0.66670
vt 0.24996 0.67022
vt 0.22880 0.67414
vt 0.20739 0.67544
vt 0.18598 0.67411
vt 0.16483 0.67015
vt 0.10194 0.83589
vt 0.08971 0.86134
vt 0.11421 0.86132
vt 0.12947 0.84215
vt 0.12400 0.81827
vt 0.10192 0.80766
vt 0.07985 0.81830
vt 0.07441 0.84220
vt 0.20896 0.81724
vt 0.20943 0.85566
vt 0.31187 0.77672
vt 0.29273 0.78425
vt 0.23004 0.89179
vt 0.33346 0.76839
vt 0.13038 0.80698
vt 0.17455 0.72387
vt 0.15040 0.69105
vt 0.08966 0.80532
vt 0.21997 0.80120
vt 0.24032 0.83159
vt 0.20057 0.76896
vt 0.26704 0.70642
vt 0.27756 0.66705
vt 0.11524 0.92010
vt 0.16579 0.92418
vt 0.27752 0.96101
vt 0.25990 0.92426
vt 0.08828 0.89810
vt 0.33847 0.76770
vt 0.37578 0.75131
vt 0.05559 0.96422
vt 0.06304 0.95886
vt 0.24159 0.90140
vt 0.35332 0.86457
vt 0.25921 0.86465
vt 0.06017 0.96118
vt 0.33527 0.86176
vt 0.08875 0.92495
vt 0.10006 0.95054
vt 0.09619 0.93785
vt 0.21664 0.72741
vt 0.19897 0.76414
vt 0.32838 0.76421
vt 0.20934 0.90469
vt 0.32107 0.94152
vt 0.30346 0.90477
vt 0.26074 0.89777
vt 0.35486 0.89769
vt 0.37247 0.86094
# 57 texture vertices

vn 0.00000 -0.99746 0.07125
vn 0.77984 -0.62191 0.07125
vn 0.77984 -0.62191 0.07125
vn 0.97245 0.22196 0.07125
vn 0.43278 0.89868 0.07125
vn 0.43278 0.89868 0.07125
vn -0.43278 0.89868 0.07125
vn -0.97245 0.22196 0.07125
vn -0.97245 0.22196 0.07125
vn -0.77984 -0.62191 0.07125
vn -0.43299 -0.89911 0.06422
vn 0.00000 0.00000 -1.00000
vn -0.50000 -0.00001 0.86603
vn -0.50000 -0.00001 0.86603
vn -0.25000 0.43301 0.86603
vn -0.25000 0.43301 0.86603
vn 0.86603 -0.50000 0.00000
vn 0.86603 -0.50000 0.00000
vn 0.86603 -0.50000 0.00000
vn 0.86603 -0.50000 0.00000
vn -0.50000 -0.00001 -0.86603
vn -0.25000 0.43301 -0.86603
vn -0.25000 0.43301 -0.86603
vn -0.50000 -0.00001 -0.86603
vn 0.25000 0.43301 0.86603
vn 0.25000 0.43301 0.86603
vn 0.00000 -1.00000 0.00000
vn 0.25001 0.43301 -0.86603
vn 0.25001 0.43301 -0.86603
vn 0.50000 0.00000 0.86603
vn 0.50000 0.00000 0.86603
vn -0.86603 -0.50000 0.00000
vn -0.86603 -0.50000 0.00000
vn 0.50000 -0.00001 -0.86603
vn 0.50000 -0.00001 -0.86603
vn 0.25000 -0.43301 0.86603
vn 0.25000 -0.43301 0.86603
vn -0.86603 0.50000 0.00000
vn -0.86603 0.50000 0.00000
vn 0.24999 -0.43302 -0.86603
vn 0.24999 -0.43302 -0.86603
vn -0.24999 -0.43302 0.86603
vn -0.24999 -0.43302 0.86603
vn 0.00000 1.00000 0.00000
vn -0.25000 -0.43301 -0.86603
vn -0.25000 -0.43301 -0.86603
vn 0.86603 0.50000 0.00000
vn 0.86603 0.50000 0.00000
vn 0.86603 0.50000 0.00000
# 49 normal vertices

g base
s 1
f 2/3/3 8/2/2 1/1/1
f 3/4/4 8/2/2 2/3/3
f 4/5/6 8/2/5 3/4/4
f 5/6/7 8/2/5 4/5/6
f 6/7/9 8/2/8 5/6/7
f 7/8/10 8/2/8 6/7/9
f 1/1/1 8/2/11 7/8/10
f 2/11/12 1/10/12 9/9/12
f 3/12/12 2/11/12 9/9/12
f 4/13/12 3/12/12 9/9/12
f 5/14/12 4/13/12 9/9/12
f 6/15/12 5/14/12 9/9/12
f 7/16/12 6/15/12 9/9/12
f 1/10/12 7/16/12 9/9/12
f 14/19/15 11/18/14 10/17/13
f 13/20/16 14/19/15 10/17/13
f 15/22/19 12/21/18 11/18/17
f 14/19/20 15/22/19 11/18/17
f 15/25/23 13/24/22 10/23/21
f 12/26/24 15/25/23 10/23/21
f 16/28/26 17/27/25 14/19/15
f 13/20/16 16/28/26 14/19/15
f 18/29/27 15/22/27 14/19/27
f 17/27/27 18/29/27 14/19/27
f 16/30/28 13/24/22 15/25/23
f 18/31/29 16/30/28 15/25/23
f 20/32/30 17/27/25 16/28/26
f 19/35/31 20/34/30 16/33/26
f 21/36/33 18/29/32 17/27/32
f 20/32/33 21/36/33 17/27/32
f 19/37/34 16/30/28 18/31/29
f 21/38/35 19/37/34 18/31/29
f 22/40/37 23/39/36 20/32/30
f 19/43/31 22/42/37 20/41/30
f 24/44/38 21/36/39 20/32/38
f 23/39/39 24/44/38 20/32/38
f 22/45/40 19/37/34 21/38/35
f 24/44/41 22/40/40 21/36/35
f 26/46/42 23/39/36 22/40/37
f 25/47/43 26/46/42 22/40/37
f 27/48/44 24/44/44 23/39/44
f 26/46/44 27/48/44 23/39/44
f 25/47/45 22/40/40 24/44/41
f 27/48/46 25/47/45 24/44/41
f 11/51/14 26/50/42 25/49/43
f 10/54/13 11/53/14 25/52/43
f 12/21/49 27/48/48 26/46/47
f 11/18/48 12/21/49 26/46/47
f 12/57/24 10/56/21 25/55/45
f 27/48/46 12/21/24 25/47/45
# 50 elements

